<mxfile host="app.diagrams.net" modified="2022-12-01T10:11:39.336Z" agent="5.0 (Macintosh; Intel Mac OS X 10_15_7) AppleWebKit/537.36 (KHTML, like Gecko) Chrome/107.0.0.0 Safari/537.36" version="20.6.0" etag="EeFRWv-EJ1XgHIS56uGp" type="github">
  <diagram id="ubbn-bfXZOZB3iamd-TY" name="第 1 页">
    <mxGraphModel dx="976" dy="614" grid="1" gridSize="10" guides="1" tooltips="1" connect="1" arrows="1" fold="1" page="1" pageScale="1" pageWidth="827" pageHeight="1169" math="0" shadow="0">
      <root>
        <mxCell id="0" />
        <mxCell id="1" parent="0" />
        <mxCell id="JHDLdeAVpsuGCa55frau-1" value="&lt;b&gt;&lt;font style=&quot;font-size: 18px;&quot;&gt;Log Block Body&lt;/font&gt;&lt;/b&gt;" style="whiteSpace=wrap;html=1;aspect=fixed;strokeWidth=2;" vertex="1" parent="1">
          <mxGeometry x="130" y="280" width="160" height="160" as="geometry" />
        </mxCell>
        <mxCell id="JHDLdeAVpsuGCa55frau-2" value="&lt;b&gt;Header&lt;/b&gt;" style="rounded=0;whiteSpace=wrap;html=1;strokeWidth=2;fontSize=18;fillColor=#e51400;fontColor=#ffffff;strokeColor=#B20000;" vertex="1" parent="1">
          <mxGeometry x="130" y="230" width="160" height="50" as="geometry" />
        </mxCell>
        <mxCell id="JHDLdeAVpsuGCa55frau-3" value="&lt;b&gt;Trailer&lt;/b&gt;" style="rounded=0;whiteSpace=wrap;html=1;strokeWidth=2;fontSize=18;fillColor=#e51400;fontColor=#ffffff;strokeColor=#B20000;" vertex="1" parent="1">
          <mxGeometry x="130" y="440" width="160" height="40" as="geometry" />
        </mxCell>
        <mxCell id="JHDLdeAVpsuGCa55frau-4" value="" style="shape=curlyBracket;whiteSpace=wrap;html=1;rounded=1;labelPosition=left;verticalLabelPosition=middle;align=right;verticalAlign=middle;strokeWidth=2;fontSize=18;" vertex="1" parent="1">
          <mxGeometry x="116" y="230" width="10" height="50" as="geometry" />
        </mxCell>
        <mxCell id="JHDLdeAVpsuGCa55frau-5" value="12B" style="text;html=1;align=center;verticalAlign=middle;resizable=0;points=[];autosize=1;strokeColor=none;fillColor=none;fontSize=18;" vertex="1" parent="1">
          <mxGeometry x="56" y="235" width="60" height="40" as="geometry" />
        </mxCell>
        <mxCell id="JHDLdeAVpsuGCa55frau-6" value="" style="shape=curlyBracket;whiteSpace=wrap;html=1;rounded=1;flipH=1;labelPosition=right;verticalLabelPosition=middle;align=left;verticalAlign=middle;strokeWidth=2;fontSize=18;" vertex="1" parent="1">
          <mxGeometry x="296" y="280" width="20" height="160" as="geometry" />
        </mxCell>
        <mxCell id="JHDLdeAVpsuGCa55frau-7" value="12B - 508B" style="text;html=1;align=center;verticalAlign=middle;resizable=0;points=[];autosize=1;strokeColor=none;fillColor=none;fontSize=18;" vertex="1" parent="1">
          <mxGeometry x="315" y="340" width="110" height="40" as="geometry" />
        </mxCell>
        <mxCell id="JHDLdeAVpsuGCa55frau-8" value="" style="shape=curlyBracket;whiteSpace=wrap;html=1;rounded=1;labelPosition=left;verticalLabelPosition=middle;align=right;verticalAlign=middle;strokeWidth=2;fontSize=18;" vertex="1" parent="1">
          <mxGeometry x="111" y="440" width="13" height="40" as="geometry" />
        </mxCell>
        <mxCell id="JHDLdeAVpsuGCa55frau-9" value="512B" style="text;html=1;align=center;verticalAlign=middle;resizable=0;points=[];autosize=1;strokeColor=none;fillColor=none;fontSize=18;" vertex="1" parent="1">
          <mxGeometry x="46" y="440" width="70" height="40" as="geometry" />
        </mxCell>
        <mxCell id="JHDLdeAVpsuGCa55frau-14" style="edgeStyle=orthogonalEdgeStyle;rounded=0;orthogonalLoop=1;jettySize=auto;html=1;fontSize=18;strokeWidth=2;dashed=1;" edge="1" parent="1" source="JHDLdeAVpsuGCa55frau-10">
          <mxGeometry relative="1" as="geometry">
            <mxPoint x="300" y="255" as="targetPoint" />
          </mxGeometry>
        </mxCell>
        <mxCell id="JHDLdeAVpsuGCa55frau-10" value="" style="shape=curlyBracket;whiteSpace=wrap;html=1;rounded=1;labelPosition=left;verticalLabelPosition=middle;align=right;verticalAlign=middle;strokeWidth=2;fontSize=18;dashed=1;" vertex="1" parent="1">
          <mxGeometry x="448" y="195" width="20" height="120" as="geometry" />
        </mxCell>
        <mxCell id="JHDLdeAVpsuGCa55frau-16" value="&lt;b&gt;1 - 4B LOG_BLOCK_HDR_NO&lt;/b&gt;" style="text;html=1;align=center;verticalAlign=middle;resizable=0;points=[];autosize=1;strokeColor=none;fillColor=none;fontSize=18;" vertex="1" parent="1">
          <mxGeometry x="468" y="187" width="280" height="40" as="geometry" />
        </mxCell>
        <mxCell id="JHDLdeAVpsuGCa55frau-17" value="&lt;b style=&quot;color: rgb(0, 0, 0); font-family: Helvetica; font-size: 18px; font-style: normal; font-variant-ligatures: normal; font-variant-caps: normal; letter-spacing: normal; orphans: 2; text-align: center; text-indent: 0px; text-transform: none; widows: 2; word-spacing: 0px; -webkit-text-stroke-width: 0px; background-color: rgb(248, 249, 250); text-decoration-thickness: initial; text-decoration-style: initial; text-decoration-color: initial;&quot;&gt;4 - 6B LOG_BLOCK_HDR_DATA_LEN&lt;/b&gt;" style="text;whiteSpace=wrap;html=1;fontSize=18;" vertex="1" parent="1">
          <mxGeometry x="480" y="222" width="340" height="50" as="geometry" />
        </mxCell>
        <mxCell id="JHDLdeAVpsuGCa55frau-18" value="&lt;b style=&quot;color: rgb(0, 0, 0); font-family: Helvetica; font-size: 18px; font-style: normal; font-variant-ligatures: normal; font-variant-caps: normal; letter-spacing: normal; orphans: 2; text-align: center; text-indent: 0px; text-transform: none; widows: 2; word-spacing: 0px; -webkit-text-stroke-width: 0px; background-color: rgb(248, 249, 250); text-decoration-thickness: initial; text-decoration-style: initial; text-decoration-color: initial;&quot;&gt;6 - 8B LOG_BLOCK_FIRST_REC_CROUP&lt;/b&gt;" style="text;whiteSpace=wrap;html=1;fontSize=18;" vertex="1" parent="1">
          <mxGeometry x="480" y="252" width="390" height="50" as="geometry" />
        </mxCell>
        <mxCell id="JHDLdeAVpsuGCa55frau-19" value="&lt;b style=&quot;color: rgb(0, 0, 0); font-family: Helvetica; font-size: 18px; font-style: normal; font-variant-ligatures: normal; font-variant-caps: normal; letter-spacing: normal; orphans: 2; text-align: center; text-indent: 0px; text-transform: none; widows: 2; word-spacing: 0px; -webkit-text-stroke-width: 0px; background-color: rgb(248, 249, 250); text-decoration-thickness: initial; text-decoration-style: initial; text-decoration-color: initial;&quot;&gt;8 - 12B LOG_BLOCK_CHECKPOINT_NO&lt;/b&gt;" style="text;whiteSpace=wrap;html=1;fontSize=18;" vertex="1" parent="1">
          <mxGeometry x="480" y="282" width="360" height="50" as="geometry" />
        </mxCell>
        <mxCell id="JHDLdeAVpsuGCa55frau-30" style="edgeStyle=orthogonalEdgeStyle;rounded=0;orthogonalLoop=1;jettySize=auto;html=1;dashed=1;strokeWidth=2;fontSize=18;" edge="1" parent="1" source="JHDLdeAVpsuGCa55frau-20" target="JHDLdeAVpsuGCa55frau-3">
          <mxGeometry relative="1" as="geometry" />
        </mxCell>
        <mxCell id="JHDLdeAVpsuGCa55frau-20" value="&lt;b&gt;508 - 512B LOG_BLOCK_CHECKSUM&lt;/b&gt;" style="text;html=1;align=center;verticalAlign=middle;resizable=0;points=[];autosize=1;strokeColor=none;fillColor=none;fontSize=18;" vertex="1" parent="1">
          <mxGeometry x="480" y="440" width="340" height="40" as="geometry" />
        </mxCell>
      </root>
    </mxGraphModel>
  </diagram>
</mxfile>
